<svg width="379" height="268" viewBox="0 0 379 268" fill="none" xmlns="http://www.w3.org/2000/svg">
<g clip-path="url(#clip0)">
<path d="M322.373 38.5562L343.873 53.0477C344.175 53.2207 344.651 50.1494 344.954 50.2792L359.575 55.9027L359.748 160.977L268.257 159.852L268.949 17.4462L296.808 17.6625L322.373 38.5562Z" fill="#FFF5FD"/>
<path d="M329.467 41.9732L351.875 52.9608L351.918 55.9024L277.298 55.4698L277.601 28.6064L309.785 28.1738L316.966 33.6676C318.22 34.6193 319.778 35.6575 321.724 36.9553C324.969 39.0749 326.915 40.5024 329.467 41.9732Z" fill="#B0C0F4"/>
<path d="M351.876 60.2716V86.7889L277.169 86.6591V60.2716H351.876Z" fill="#B0C0F4"/>
<path d="M351.659 91.5471V118.064L276.995 117.891L276.952 91.5471H351.659Z" fill="#B0C0F4"/>
<path d="M351.27 123.256V149.773L276.562 149.643V123.256H351.27Z" fill="#B0C0F4"/>
<path d="M325.877 106.601L322.373 102.016L309.352 113.609L312.64 118.324L325.877 106.601Z" fill="white"/>
<path d="M351.703 96.6952L343.267 96.7384L343.224 118.108L351.659 118.021L351.703 96.6952Z" fill="white"/>
<path d="M333.275 100.329L329.814 98.3823L321.033 115.945L324.45 118.281L333.275 100.329Z" fill="#F5F5FC"/>
<path d="M337.341 94.3594H333.231L333.145 118.195L337.341 118.065V94.3594Z" fill="white"/>
<path d="M343.224 101.627L337.254 101.756L337.341 118.151L343.31 118.021L343.224 101.627Z" fill="#F5F5FC"/>
<path d="M310.52 96.6521L302.128 96.6954L302.042 118.065L310.52 117.935V96.6521Z" fill="white"/>
<path d="M296.159 94.3159H292.092L291.962 118.108L296.202 118.021L296.159 94.3159Z" fill="white"/>
<path d="M302.042 101.583L296.072 101.67L296.202 118.064L302.172 117.978L302.042 101.583Z" fill="#F5F5FC"/>
<path d="M351.27 125.462L344.824 125.505L344.781 149.989L351.226 149.86L351.27 125.462Z" fill="white"/>
<path d="M344.824 129.139L340.455 129.096L340.585 149.903L344.911 149.86L344.824 129.139Z" fill="#F5F5FC"/>
<path d="M340.455 133.421L334.529 133.508L334.659 149.903L340.628 149.816L340.455 133.421Z" fill="white"/>
<path d="M304.118 52.3121V55.3835L280.24 55.5565V52.3121H304.118Z" fill="#F5F5FC"/>
<path d="M304.161 49.8897L304.075 52.3555L288.502 52.442L288.632 49.8032L304.161 49.8897Z" fill="white"/>
<path d="M351.832 65.4197L343.397 65.4629L343.354 86.8325L351.832 86.7027V65.4197Z" fill="white"/>
<path d="M286.209 68.8368L289.757 66.8901L298.884 84.453L295.294 86.7457L286.209 68.8368Z" fill="#F5F5FC"/>
<path d="M281.191 62.8668H277.082L276.995 86.6589L281.191 86.5723V62.8668Z" fill="white"/>
<path d="M286.815 70.2646L280.846 70.3512L280.932 86.746L286.902 86.6595L286.815 70.2646Z" fill="#F5F5FC"/>
<path d="M327.002 83.6742V86.7455L303.124 86.9186V83.6742H327.002Z" fill="#F5F5FC"/>
<path d="M323.282 81.1656L323.152 83.6313L307.579 83.7179L307.709 81.0791L323.282 81.1656Z" fill="white"/>
<path d="M96.4792 191.388C96.4792 191.388 103.66 199.867 97.7769 200.083C91.8938 200.3 79.8248 207.134 77.5321 201.035C75.2394 194.936 70.6108 191.864 73.4225 191.172C76.2343 190.48 78.7865 187.625 84.7129 188.101C90.6393 188.577 96.4792 191.388 96.4792 191.388Z" fill="#F5F5FC"/>
<path d="M98.3391 150.163C98.3391 150.163 101.713 150.509 101.713 154.705C101.713 158.901 99.5504 194.979 91.3313 195.714C86.0105 196.19 80.3437 196.147 77.5319 195.887C76.3207 195.757 75.1527 192.124 74.9364 190.653C73.855 183.472 72.4707 165.996 72.1679 155.83C72.1246 153.754 73.5089 151.028 74.2443 150.336C78.3538 146.573 98.3391 150.163 98.3391 150.163Z" fill="#FFF5FD"/>
<path d="M58.5849 80.3444C59.8826 79.1331 61.6994 80.777 61.0073 82.464C60.3584 84.1078 59.8826 86.9196 62.5214 89.9477C66.5876 94.6628 81.2522 110.582 81.0792 120.834C80.9061 131.086 84.1072 133.941 81.0792 137.835C78.0511 141.728 65.8522 141.598 62.6511 133.292C59.45 124.987 51.3607 121.656 51.5337 109.803C51.7068 97.9505 53.091 92.7595 54.5618 88.6932C55.427 86.141 56.8978 81.9449 58.5849 80.3444Z" fill="#E9EDFB"/>
<path d="M80.7764 148.649C80.7764 148.649 79.4786 130.091 64.9871 122.002C55.9029 116.941 55.2972 99.3777 57.4602 95.3979" stroke="white" stroke-width="1.29775" stroke-linecap="round" stroke-linejoin="round"/>
<path d="M78.9161 156.435C78.9161 156.435 74.3307 174.69 79.3054 189.182Z" fill="#BAC5F4"/>
<path d="M68.4911 76.3213C69.8754 75.1534 71.822 76.7107 71.0866 78.3545C70.3945 79.9118 69.9186 82.637 72.6872 85.5353C77.0562 90.0342 92.7157 105.261 92.5859 115.081C92.4562 124.9 92.5859 130.61 89.3416 134.331C86.0972 138.051 78.527 135.066 75.1096 127.15C71.6922 119.234 60.7479 115.859 60.9209 104.482C61.0939 93.1488 62.608 88.1741 64.1653 84.2809C65.117 81.8151 66.6743 77.8354 68.4911 76.3213Z" fill="#FFF5FD"/>
<path d="M86.8323 149.038C86.8323 149.038 91.9367 123.818 79.5216 108.635C74.5469 102.579 67.193 90.423 67.2363 84.5399" stroke="white" stroke-width="1.29775" stroke-linecap="round" stroke-linejoin="round"/>
<path d="M107.207 80.3444C105.953 79.1331 104.136 80.777 104.785 82.464C105.434 84.1078 105.866 86.9196 103.271 89.9477C99.2476 94.6628 84.7128 110.582 84.8426 120.834C84.9724 131.086 84.8426 137.056 87.8707 140.992C90.8988 144.929 97.8634 141.771 101.021 133.465C104.179 125.16 114.301 121.656 114.172 109.803C114.042 97.9505 112.614 92.7595 111.187 88.6932C110.322 86.141 108.894 81.9449 107.207 80.3444Z" fill="#E9EDFB"/>
<path d="M90.8987 149.47C90.8987 149.47 85.0589 126.543 96.5656 111.403C101.151 105.347 108.548 96.3491 108.462 90.5093" stroke="white" stroke-width="1.29775" stroke-linecap="round" stroke-linejoin="round"/>
<path d="M116.551 120.314C116.551 120.314 128.577 120.574 135.065 105.996C141.554 91.4179 126.933 88.4331 116.205 96.2628C105.477 104.093 109.846 107.337 97.0414 114.561C84.237 121.785 87.0055 136.104 90.9853 139.91C94.965 143.717 102.492 149.643 107.51 134.157C112.528 118.671 116.551 120.314 116.551 120.314Z" fill="#FFF5FD"/>
<path d="M93.1917 149.644C93.1917 149.644 92.3265 113.134 128.534 103.098" stroke="white" stroke-width="1.29775" stroke-linecap="round" stroke-linejoin="round"/>
<path d="M98.3392 150.163C98.3392 150.163 83.5881 147.784 77.8348 149.038C72.0814 150.293 88.0005 151.764 88.0005 151.764C88.0005 151.764 95.6139 152.11 98.3392 150.163Z" fill="#BAC5F4"/>
<path d="M277.169 154.013C277.169 154.013 293.78 140.906 296.591 128.058C299.403 115.21 293.304 106.299 284.436 104.915C275.568 103.531 270.161 99.2914 239.058 109.846C207.955 120.401 172.138 101.671 172.138 101.671C172.138 101.671 142.895 88.2173 128.447 91.5049C112.009 95.2251 108.505 105.174 112.96 122.954C117.416 140.733 132.556 154.186 132.556 154.186L277.169 154.013Z" fill="#FFF5FD"/>
<path d="M284.695 152.629C284.695 152.629 287.291 152.629 287.724 155.224C288.156 157.82 287.291 166.039 285.993 168.634C284.695 171.23 278.596 171.1 278.596 171.1L130.263 170.797C130.263 170.797 125.332 170.841 124.207 166.904C123.299 163.746 122.001 160.588 121.871 158.382C121.742 155.787 123.602 153.537 126.154 153.191C127.755 152.975 129.398 152.888 130.999 152.888C142.289 152.888 284.695 152.629 284.695 152.629Z" fill="#FFF5FD"/>
<path d="M291.617 192.858L281.667 171.229H273.881L284.263 192.858H291.617Z" fill="white"/>
<path d="M138.483 171.229L129.398 193.291L122.91 192.858L131.561 171.229H138.483Z" fill="white"/>
<path d="M274.616 152.888C274.616 152.888 288.286 142.333 288.935 137.964C289.757 132.254 284.609 123.775 264.623 127.539C244.638 131.302 209.383 141.468 190.263 136.277C171.142 131.086 147.091 109.284 145.36 108.116C143.63 106.948 123.169 96.9117 118.54 112.225C113.912 127.539 132.599 152.715 132.599 152.715L274.616 152.888Z" fill="#E9E9FF"/>
<path d="M208.129 -23L207.566 6.28583L206.874 6.15606L206.269 -23H208.129Z" fill="#BAC5F4"/>
<path d="M222.966 30.294C222.966 30.294 228.417 5.85305 206.831 5.5935C186.413 5.37721 191.647 31.5484 191.647 31.5484L222.966 30.294Z" fill="#FFF5FD"/>
<path d="M223.182 30.2947C223.182 30.2947 205.836 22.7678 191.647 31.4627C191.647 31.4627 206.571 39.379 223.182 30.2947Z" fill="white"/>
<path d="M214.79 9.96289C214.79 9.96289 222.36 12.7747 220.803 25.6224Z" fill="white"/>
<path d="M223.182 30.2939L238.495 85.3617L175.857 84.7561L191.647 31.4619L223.182 30.2939Z" fill="url(#paint0_linear)"/>
<path d="M302.462 199.598C302.462 199.598 297.66 217.031 298.439 218.978C299.217 220.924 303.111 221.314 304.841 221.703C306.571 222.092 322.274 226.202 323.875 226.288C325.475 226.375 325.345 226.591 326.038 226.591C326.73 226.591 335.468 223.65 335.771 222.612C336.073 221.573 336.333 220.881 336.073 219.583C335.814 218.286 331.834 201.675 330.753 201.328C329.671 200.982 302.462 199.598 302.462 199.598Z" fill="url(#paint1_linear)"/>
<path d="M301.64 202.713C301.64 202.713 301.986 199.987 302.462 199.598C302.938 199.209 304.279 197.435 305.576 197.349C306.874 197.262 327.768 199.901 328.546 200.074C329.325 200.247 330.363 200.636 330.709 201.285C331.055 201.934 327.681 202.713 327.032 204.789C326.384 206.865 314.444 211.235 311.503 211.537C308.561 211.84 301.64 202.713 301.64 202.713Z" fill="url(#paint2_linear)"/>
<path d="M308.475 198.041C308.475 198.041 310.724 193.153 311.806 192.244C312.757 191.423 316.175 189.649 318.251 192.288C320.587 195.273 320.371 198.733 320.371 199.166C320.371 199.598 318.078 199.209 318.078 199.209C318.078 199.209 318.814 195.662 318.165 194.451C317.559 193.326 317.213 191.985 315.05 192.115C312.887 192.244 312.109 193.456 311.46 194.58C310.897 195.705 310.465 196.873 310.075 198.084C309.989 198.214 308.475 198.041 308.475 198.041Z" fill="#7A5BF5"/>
<path d="M312.065 198.344C312.065 198.344 314.315 192.374 315.396 191.25C316.348 190.255 319.981 188.265 322.058 191.466C324.394 195.099 323.918 199.166 323.918 199.642C323.918 200.117 321.625 199.728 321.625 199.728C321.625 199.728 322.317 195.402 321.668 193.888C321.063 192.504 320.717 190.86 318.597 191.033C316.477 191.206 315.656 192.634 315.007 194.061C314.444 195.446 314.012 196.873 313.622 198.344C313.622 198.56 312.065 198.344 312.065 198.344Z" fill="#7A5BF5"/>
<path d="M326.124 206.001C326.124 206.001 324.134 222.742 324.394 223.866C324.654 224.991 325.302 226.592 325.778 226.592C326.254 226.592 327.033 226.505 326.73 226.116C325.735 224.688 325.302 222.915 325.562 221.228C325.865 218.502 327.033 204.789 327.033 204.789L326.124 206.001Z" fill="#7A5BF5"/>
<path d="M310.984 212.749C311.653 212.749 312.195 212.206 312.195 211.538C312.195 210.869 311.653 210.326 310.984 210.326C310.315 210.326 309.773 210.869 309.773 211.538C309.773 212.206 310.315 212.749 310.984 212.749Z" fill="white"/>
<path d="M222.233 159.582C220.979 157.506 219.984 156.987 216.912 156.9C213.841 156.814 209.775 156.857 209.775 156.857L209.732 161.226C209.732 161.226 213.106 163.173 214.922 164.168C215.009 164.211 215.312 164.384 215.528 164.514C215.831 164.643 216.177 164.773 216.523 164.86C218.297 165.249 219.94 165.033 221.108 163.908C222.363 162.61 223.488 161.659 222.233 159.582Z" fill="#4B44BE"/>
<path d="M199.09 155.732C199.003 155.819 198.701 156.035 198.528 156.165C198.268 156.381 198.052 156.684 197.835 156.943C196.84 158.457 196.365 160.015 197.057 161.529C197.792 163.172 198.268 164.6 200.604 164.167C202.94 163.778 203.848 163.043 205.103 160.274C206.357 157.506 207.828 153.656 207.785 153.656L203.762 152.012C203.719 152.012 200.647 154.434 199.09 155.732Z" fill="#4B44BE"/>
<path d="M210.078 157.03C210.078 157.03 210.121 161.442 209.429 161.528C208.693 161.615 198.831 160.187 194.894 160.014C190.958 159.798 182.046 157.246 177.677 152.314C173.871 148.032 174.476 143.317 177.288 143.317C180.1 143.317 182.652 140.938 189.746 144.312C196.841 147.686 204.368 148.248 208.607 147.945C212.846 147.599 224.699 145.436 225.607 144.744C226.516 144.052 230.971 142.149 237.157 142.798C243.343 143.446 240.402 148.378 239.104 150.281C237.287 152.92 232.961 155.732 229.328 155.862C225.694 155.991 210.078 157.03 210.078 157.03Z" fill="url(#paint3_linear)"/>
<path d="M202.724 80.1603C200.648 80.9389 198.009 91.2344 198.009 91.2344L197.965 91.1911L197.663 92.6187L197.317 94.4788L198.009 105.683L204.757 109.057L220.2 113.21L224.483 119.309C224.483 119.309 234.043 129.042 234.129 129.734C234.173 130.426 223.834 133.844 222.839 133.974C220.46 134.32 238.066 130.037 232.399 123.202C230.02 120.261 226.473 111.479 219.508 105.639C215.485 102.265 216.61 92.7052 215.182 86.649C213.409 79.0788 212.284 76.7861 210.51 76.7861C208.91 76.7861 206.66 78.6895 202.724 80.1603Z" fill="url(#paint4_linear)"/>
<path d="M224.613 104.644C221.368 101.659 220.287 100.967 217.432 101.962C214.577 102.957 213.192 103.908 209.342 104.514C206.963 104.947 204.498 104.601 202.291 103.649L194.332 104.428C193.337 104.298 182.003 125.581 181.7 129.993C181.527 132.718 187.713 136.914 189.4 137.304C190.093 137.477 191.347 130.772 191.736 130.166L189.141 129.388C189.617 128.22 191.174 125.364 192.212 123.85C192.515 123.375 194.981 119.308 195.327 117.751C195.37 117.881 195.759 120.822 196.105 121.774C196.754 123.504 197.619 124.499 197.619 125.884C197.619 127.268 197.446 132.805 196.451 135.271C195.457 137.736 193.986 143.49 193.986 143.49L219.465 143.36C219.465 143.36 218.556 132.416 218.903 128.652C218.903 128.652 218.513 127.138 219.249 124.932C220.503 121.298 220.849 115.934 220.633 115.069C220.33 113.728 228.117 124.975 229.847 127.787C230.582 128.955 220.849 131.031 220.07 131.94C219.249 132.891 220.892 135.444 220.892 135.444C220.892 135.444 237.806 133.367 237.72 130.815C237.633 128.263 228.376 108.061 224.613 104.644Z" fill="url(#paint5_linear)"/>
<path d="M204.757 74.1035C204.757 74.1035 200.042 74.2765 198.658 79.2512C197.273 84.2259 197.1 91.1472 197.057 92.2287C197.014 93.3534 197.533 100.015 194.981 102.784C192.774 105.163 193.683 107.499 193.121 109.402L192.861 112.56C192.904 112.949 193.164 113.252 193.553 113.382C193.899 113.468 195.067 112.949 195.283 112.863C198.225 111.695 198.225 110.743 199.35 109.792C200.258 109.013 202.81 107.196 203.589 106.504C204.368 105.769 204.887 105.163 204.93 104.254C205.06 99.6691 204.281 95.3865 203.286 93.1371C202.291 90.8877 200.345 87.081 201.945 84.572C203.546 82.063 206.487 79.5108 206.66 78.9051C206.833 78.2995 206.92 81.3276 208.694 82.4091C210.467 83.4905 211.981 84.9613 212.543 86.4321C213.019 87.6433 213.625 89.7197 211.938 93.3534C210.251 96.9438 208.867 101.572 211.246 104.99C213.625 108.407 218.643 112.127 219.465 113.858C220.373 115.761 219.508 120.26 219.335 122.985C219.162 125.711 224.656 118.27 224.483 114.723C224.31 111.176 224.915 109.662 221.498 104.254C218.081 98.8472 215.918 89.5467 215.831 87.2972C215.745 85.0478 214.75 78.8186 212.717 77.0018C210.943 75.4877 210.554 74.017 206.963 74.017C206.185 73.9737 205.492 74.017 204.757 74.1035Z" fill="url(#paint6_linear)"/>
<path opacity="0.07" d="M193.986 149.33L217.864 149.46C217.864 149.46 215.052 151.666 213.711 151.882C212.37 152.098 206.617 154.997 204.454 153.915C202.983 153.093 193.986 149.33 193.986 149.33Z" fill="black"/>
<path opacity="0.07" d="M207.309 95.6466C207.309 95.6466 209.558 96.2089 210.467 94.9112C212.543 91.9696 210.64 96.4252 210.64 96.4252C210.64 96.4252 210.034 98.1556 210.078 99.0207C210.121 99.8859 207.698 95.7764 207.309 95.6466Z" fill="black"/>
<path opacity="0.07" d="M198.398 110.787C198.138 111.133 197.706 111.392 197.533 112.257C197.187 113.642 196.797 115.199 195.846 116.626C195.283 117.448 195.586 120.736 196.538 122.769C196.797 123.375 197.663 124.889 197.619 125.235L197.576 128.22H200.128C200.128 128.22 202.334 128.436 201.859 126.662C201.469 125.062 199.393 119.092 200.777 117.794C203.416 115.372 200.085 110.527 201.34 108.97C202.421 107.629 203.935 106.677 203.935 106.201C203.935 106.028 203.546 106.59 203.243 106.763C202.724 107.153 202.464 107.456 201.988 107.715C201.513 108.018 200.777 108.537 200.301 108.926C199.566 109.532 198.96 110.138 198.398 110.787Z" fill="black"/>
<path d="M188.405 129.95C188.405 129.95 188.405 128.393 189.919 128.35C191.433 128.306 223.963 128.35 223.963 128.35C223.963 128.35 225.391 128.523 225.434 129.691C225.477 130.859 225.477 148.032 225.477 148.032C225.477 148.032 225.477 149.373 224.093 149.416C222.709 149.46 189.53 149.46 189.53 149.46C189.53 149.46 188.275 149.157 188.319 147.902C188.319 146.605 188.405 129.95 188.405 129.95Z" fill="white"/>
<path d="M207.006 140.289C207.794 140.289 208.434 139.65 208.434 138.861C208.434 138.073 207.794 137.434 207.006 137.434C206.218 137.434 205.579 138.073 205.579 138.861C205.579 139.65 206.218 140.289 207.006 140.289Z" fill="#76C6E7"/>
</g>
<defs>
<linearGradient id="paint0_linear" x1="207.282" y1="0.610135" x2="207.152" y2="96.5396" gradientUnits="userSpaceOnUse">
<stop stop-color="white"/>
<stop offset="1" stop-color="white" stop-opacity="0"/>
</linearGradient>
<linearGradient id="paint1_linear" x1="291.421" y1="199.797" x2="328.247" y2="216.854" gradientUnits="userSpaceOnUse">
<stop stop-color="#E5A4ED"/>
<stop offset="1" stop-color="#7A5BF5"/>
</linearGradient>
<linearGradient id="paint2_linear" x1="297.117" y1="195.277" x2="321.593" y2="206.615" gradientUnits="userSpaceOnUse">
<stop stop-color="#E5A4ED"/>
<stop offset="1" stop-color="#7A5BF5"/>
</linearGradient>
<linearGradient id="paint3_linear" x1="240.949" y1="152.024" x2="174.992" y2="152.024" gradientUnits="userSpaceOnUse">
<stop stop-color="#4B45BD"/>
<stop offset="1" stop-color="#58CAEA"/>
</linearGradient>
<linearGradient id="paint4_linear" x1="197.309" y1="105.37" x2="234.102" y2="105.37" gradientUnits="userSpaceOnUse">
<stop stop-color="#F87B58"/>
<stop offset="0.5" stop-color="#F8C548"/>
<stop offset="1" stop-color="#F89C51"/>
</linearGradient>
<linearGradient id="paint5_linear" x1="181.697" y1="122.53" x2="237.678" y2="122.53" gradientUnits="userSpaceOnUse">
<stop stop-color="#E5A4ED"/>
<stop offset="1" stop-color="#7A5BF5"/>
</linearGradient>
<linearGradient id="paint6_linear" x1="192.913" y1="98.7513" x2="224.45" y2="98.7513" gradientUnits="userSpaceOnUse">
<stop stop-color="#4B45BD"/>
<stop offset="1" stop-color="#58CAEA"/>
</linearGradient>
<clipPath id="clip0">
<rect width="418.956" height="267.475" fill="white"/>
</clipPath>
</defs>
</svg>
