<svg width="70" height="128" viewBox="0 0 70 128" fill="none" xmlns="http://www.w3.org/2000/svg">
<path d="M7.41133 80.3C9.14466 81.8333 11.3113 83.0667 13.9113 84C16.578 84.9333 19.4113 85.4 22.4113 85.4C26.1447 85.4 28.9447 84.8 30.8113 83.6C32.7447 82.3333 33.7113 80.7333 33.7113 78.8C33.7113 77.8 33.5113 76.8667 33.1113 76C32.778 75.1333 32.1113 74.3 31.1113 73.5C30.178 72.7 28.878 71.9333 27.2113 71.2C25.5447 70.4 23.378 69.5333 20.7113 68.6C15.778 66.9333 12.1113 64.9667 9.71133 62.7C7.31133 60.3667 6.11133 57.1667 6.11133 53.1C6.11133 51.1 6.54466 49.2333 7.41133 47.5C8.34466 45.7667 9.64466 44.2667 11.3113 43C13.0447 41.6667 15.1113 40.6333 17.5113 39.9C19.978 39.1667 22.778 38.8 25.9113 38.8C29.3113 38.8 32.278 39.1667 34.8113 39.9C37.4113 40.5667 39.7447 41.4333 41.8113 42.5L39.3113 49.9C37.5113 48.8333 35.4447 47.9667 33.1113 47.3C30.8447 46.6333 28.3113 46.3 25.5113 46.3C22.0447 46.3 19.4113 47 17.6113 48.4C15.8113 49.8 14.9113 51.3333 14.9113 53C14.9113 53.8 15.0447 54.5333 15.3113 55.2C15.6447 55.8667 16.2113 56.5 17.0113 57.1C17.8113 57.7 18.878 58.3 20.2113 58.9C21.5447 59.5 23.2113 60.1333 25.2113 60.8C28.478 61.9333 31.2447 63.1 33.5113 64.3C35.778 65.4333 37.6113 66.7 39.0113 68.1C40.4113 69.5 41.4113 71.0333 42.0113 72.7C42.6113 74.3 42.9113 76.1 42.9113 78.1C42.9113 80.4333 42.4113 82.5333 41.4113 84.4C40.4113 86.2667 39.0113 87.8667 37.2113 89.2C35.4113 90.4667 33.2113 91.4333 30.6113 92.1C28.078 92.8333 25.2447 93.2 22.1113 93.2C18.1113 93.2 14.5447 92.7 11.4113 91.7C8.27799 90.7 5.67799 89.4 3.61133 87.8L7.41133 80.3Z" fill="white"/>
<path d="M30.4113 80.3C32.1447 81.8333 34.3113 83.0667 36.9113 84C39.578 84.9333 42.4113 85.4 45.4113 85.4C49.1447 85.4 51.9447 84.8 53.8113 83.6C55.7447 82.3333 56.7113 80.7333 56.7113 78.8C56.7113 77.8 56.5113 76.8667 56.1113 76C55.778 75.1333 55.1113 74.3 54.1113 73.5C53.178 72.7 51.878 71.9333 50.2113 71.2C48.5447 70.4 46.378 69.5333 43.7113 68.6C38.778 66.9333 35.1113 64.9667 32.7113 62.7C30.3113 60.3667 29.1113 57.1667 29.1113 53.1C29.1113 51.1 29.5447 49.2333 30.4113 47.5C31.3447 45.7667 32.6447 44.2667 34.3113 43C36.0447 41.6667 38.1113 40.6333 40.5113 39.9C42.978 39.1667 45.778 38.8 48.9113 38.8C52.3113 38.8 55.278 39.1667 57.8113 39.9C60.4113 40.5667 62.7447 41.4333 64.8113 42.5L62.3113 49.9C60.5113 48.8333 58.4447 47.9667 56.1113 47.3C53.8447 46.6333 51.3113 46.3 48.5113 46.3C45.0447 46.3 42.4113 47 40.6113 48.4C38.8113 49.8 37.9113 51.3333 37.9113 53C37.9113 53.8 38.0447 54.5333 38.3113 55.2C38.6447 55.8667 39.2113 56.5 40.0113 57.1C40.8113 57.7 41.878 58.3 43.2113 58.9C44.5447 59.5 46.2113 60.1333 48.2113 60.8C51.478 61.9333 54.2447 63.1 56.5113 64.3C58.778 65.4333 60.6113 66.7 62.0113 68.1C63.4113 69.5 64.4113 71.0333 65.0113 72.7C65.6113 74.3 65.9113 76.1 65.9113 78.1C65.9113 80.4333 65.4113 82.5333 64.4113 84.4C63.4113 86.2667 62.0113 87.8667 60.2113 89.2C58.4113 90.4667 56.2113 91.4333 53.6113 92.1C51.078 92.8333 48.2447 93.2 45.1113 93.2C41.1113 93.2 37.5447 92.7 34.4113 91.7C31.278 90.7 28.678 89.4 26.6113 87.8L30.4113 80.3Z" fill="white"/>
</svg>
