<svg width="21" height="32" viewBox="0 0 21 32" fill="none" xmlns="http://www.w3.org/2000/svg">
<path d="M2.18477 23.551C2.69574 24.003 3.33444 24.3666 4.10089 24.6417C4.88699 24.9168 5.72223 25.0544 6.60659 25.0544C7.70713 25.0544 8.53254 24.8775 9.08281 24.5238C9.65273 24.1504 9.9377 23.6787 9.9377 23.1088C9.9377 22.814 9.87874 22.5389 9.76082 22.2834C9.66256 22.0279 9.46603 21.7823 9.17125 21.5464C8.89611 21.3106 8.51289 21.0846 8.02157 20.8684C7.53026 20.6326 6.89155 20.3771 6.10545 20.102C4.65116 19.6106 3.57027 19.0309 2.86278 18.3627C2.15529 17.6749 1.80155 16.7315 1.80155 15.5327C1.80155 14.9432 1.92929 14.3929 2.18477 13.8819C2.45991 13.371 2.84313 12.9288 3.33444 12.5554C3.84541 12.1623 4.45464 11.8577 5.16213 11.6415C5.88927 11.4254 6.71468 11.3173 7.63835 11.3173C8.64063 11.3173 9.51517 11.4254 10.262 11.6415C11.0284 11.8381 11.7162 12.0936 12.3255 12.408L11.5885 14.5894C11.0579 14.275 10.4487 14.0195 9.76082 13.823C9.09264 13.6264 8.34584 13.5282 7.52043 13.5282C6.4985 13.5282 5.72223 13.7345 5.19161 14.1472C4.66099 14.5599 4.39568 15.012 4.39568 15.5033C4.39568 15.7391 4.43499 15.9553 4.5136 16.1518C4.61186 16.3483 4.7789 16.535 5.01474 16.7119C5.25057 16.8888 5.56501 17.0656 5.95806 17.2425C6.35111 17.4194 6.84242 17.6061 7.432 17.8026C8.39497 18.1367 9.21055 18.4806 9.87874 18.8344C10.5469 19.1685 11.0874 19.5419 11.5001 19.9546C11.9128 20.3673 12.2076 20.8193 12.3844 21.3106C12.5613 21.7823 12.6497 22.3129 12.6497 22.9024C12.6497 23.5903 12.5024 24.2093 12.2076 24.7596C11.9128 25.3099 11.5001 25.7815 10.9695 26.1746C10.4388 26.548 9.7903 26.833 9.02385 27.0295C8.27706 27.2457 7.44182 27.3537 6.51815 27.3537C5.339 27.3537 4.28759 27.2064 3.36392 26.9116C2.44025 26.6168 1.6738 26.2336 1.06458 25.7619L2.18477 23.551Z" fill="#022E57"/>
<path d="M8.9649 23.551C9.47586 24.003 10.1146 24.3666 10.881 24.6417C11.6671 24.9168 12.5024 25.0544 13.3867 25.0544C14.4873 25.0544 15.3127 24.8775 15.8629 24.5238C16.4329 24.1504 16.7178 23.6787 16.7178 23.1088C16.7178 22.814 16.6589 22.5389 16.541 22.2834C16.4427 22.0279 16.2462 21.7823 15.9514 21.5464C15.6762 21.3106 15.293 21.0846 14.8017 20.8684C14.3104 20.6326 13.6717 20.3771 12.8856 20.102C11.4313 19.6106 10.3504 19.0309 9.64291 18.3627C8.93542 17.6749 8.58167 16.7315 8.58167 15.5327C8.58167 14.9432 8.70942 14.3929 8.9649 13.8819C9.24003 13.371 9.62326 12.9288 10.1146 12.5554C10.6255 12.1623 11.2348 11.8577 11.9423 11.6415C12.6694 11.4254 13.4948 11.3173 14.4185 11.3173C15.4208 11.3173 16.2953 11.4254 17.0421 11.6415C17.8085 11.8381 18.4964 12.0936 19.1056 12.408L18.3686 14.5894C17.838 14.275 17.2288 14.0195 16.541 13.823C15.8728 13.6264 15.126 13.5282 14.3006 13.5282C13.2786 13.5282 12.5024 13.7345 11.9717 14.1472C11.4411 14.5599 11.1758 15.012 11.1758 15.5033C11.1758 15.7391 11.2151 15.9553 11.2937 16.1518C11.392 16.3483 11.559 16.535 11.7949 16.7119C12.0307 16.8888 12.3451 17.0656 12.7382 17.2425C13.1312 17.4194 13.6225 17.6061 14.2121 17.8026C15.1751 18.1367 15.9907 18.4806 16.6589 18.8344C17.3271 19.1685 17.8675 19.5419 18.2802 19.9546C18.6929 20.3673 18.9877 20.8193 19.1646 21.3106C19.3414 21.7823 19.4299 22.3129 19.4299 22.9024C19.4299 23.5903 19.2825 24.2093 18.9877 24.7596C18.6929 25.3099 18.2802 25.7815 17.7496 26.1746C17.219 26.548 16.5704 26.833 15.804 27.0295C15.0572 27.2457 14.222 27.3537 13.2983 27.3537C12.1191 27.3537 11.0677 27.2064 10.1441 26.9116C9.22038 26.6168 8.45393 26.2336 7.8447 25.7619L8.9649 23.551Z" fill="#022E57"/>
</svg>
